<svg xmlns="http://www.w3.org/2000/svg" width="13" height="15" viewBox="0 0 13 15" fill="none">
  <path fill-rule="evenodd" clip-rule="evenodd" d="M7.23445 0.310967C7.74449 -0.00200798 8.3484 -0.0826368 8.91331 0.0868196C9.16377 0.161951 9.3778 0.292826 9.57954 0.440655C9.77115 0.581052 9.99094 0.766944 10.2457 0.982376L10.2828 1.01381C10.5376 1.22924 10.7574 1.41514 10.9296 1.58243C11.111 1.75859 11.2801 1.95176 11.4082 2.19677C11.697 2.74937 11.7714 3.40367 11.6151 4.01571C11.5457 4.28708 11.4249 4.51897 11.2885 4.73756C11.1589 4.94516 10.9873 5.18329 10.7884 5.45929L5.55579 12.7222C5.54255 12.7405 5.5295 12.7587 5.51661 12.7766C5.27095 13.1178 5.08523 13.3758 4.85534 13.5877C4.66075 13.767 4.44545 13.9182 4.21485 14.0374C3.94244 14.1782 3.64922 14.2565 3.26136 14.3601C3.24102 14.3655 3.22043 14.371 3.19956 14.3766L1.6342 14.7953C1.5258 14.8243 1.40205 14.8575 1.29289 14.8757C1.17121 14.8959 0.982767 14.9143 0.774645 14.8421C0.52446 14.7553 0.310999 14.5747 0.17254 14.3329C0.0573662 14.1316 0.0280689 13.9291 0.0166647 13.7963C0.00644514 13.6772 0.00607387 13.5391 0.00575561 13.4181C0.00573793 13.4106 0.00572035 13.4032 0.00570266 13.3958L0.000645803 11.6712C0.00057508 11.6479 0.0004867 11.6249 0.000415977 11.6022C-0.00101618 11.1694 -0.00209463 10.8422 0.0578436 10.5217C0.108588 10.2505 0.19167 9.98747 0.305023 9.7394C0.43892 9.44635 0.624852 9.1885 0.870776 8.84744C0.883666 8.82957 0.896732 8.81145 0.909957 8.7931L6.1426 1.53023C6.34144 1.2542 6.51302 1.01605 6.66743 0.829451C6.83 0.632984 7.00831 0.449716 7.23445 0.310967ZM8.52017 1.6253C8.33187 1.56883 8.13057 1.59568 7.96055 1.70001C7.93168 1.71773 7.87687 1.7593 7.76447 1.89511C7.64766 2.03628 7.50699 2.23083 7.28956 2.5326L9.61248 4.49713C9.8299 4.19536 9.96995 4.00027 10.068 3.84323C10.1623 3.69213 10.1862 3.62443 10.1951 3.58977C10.2472 3.38576 10.2224 3.16767 10.1261 2.98346C10.1097 2.95218 10.0714 2.89279 9.94603 2.77102C9.81574 2.64445 9.63617 2.49204 9.35765 2.25648C9.07912 2.02093 8.89906 1.8692 8.75411 1.76297C8.61464 1.6608 8.55216 1.6349 8.52017 1.6253ZM8.70587 5.75551L6.38296 3.79097L2.07142 9.77536C1.76955 10.1943 1.68442 10.3187 1.62549 10.4476C1.56882 10.5717 1.52727 10.7032 1.5019 10.8388C1.47552 10.9798 1.47248 11.1346 1.47405 11.6661L1.47852 13.1926L2.84642 12.8268C3.32271 12.6994 3.46053 12.6586 3.58041 12.5966C3.69571 12.537 3.80335 12.4614 3.90065 12.3718C4.00182 12.2785 4.09247 12.1589 4.39433 11.7399L8.70587 5.75551ZM6.36966 14.2018C6.36966 13.761 6.69948 13.4036 7.10635 13.4036H12.2633C12.6702 13.4036 13 13.761 13 14.2018C13 14.6426 12.6702 15 12.2633 15H7.10635C6.69948 15 6.36966 14.6426 6.36966 14.2018Z" fill="#A09F9F"/>
</svg>