<svg xmlns="http://www.w3.org/2000/svg" width="27" height="26" viewBox="0 0 27 26" fill="none">
  <path d="M18.1586 20.3191C17.7462 20.3191 17.3407 20.1355 17.0855 19.7917L7.77302 7.23706C7.35747 6.67674 7.50038 5.90436 8.09259 5.51119C8.6848 5.11801 9.50114 5.25323 9.91669 5.81355L19.2291 18.3682C19.6447 18.9285 19.5018 19.7009 18.9096 20.0941C18.6807 20.2458 18.4181 20.3191 18.1586 20.3191Z" fill="#FFF"/>
  <path d="M8.8437 20.3201C8.58477 20.3201 8.32321 20.2477 8.09486 20.0966C7.50212 19.7049 7.3571 18.9325 7.77107 18.3712L17.0835 5.75516C17.4975 5.19433 18.3138 5.05712 18.9071 5.4488C19.4998 5.84048 19.6449 6.61286 19.2309 7.17418L9.91844 19.7902C9.66425 20.1355 9.25714 20.3201 8.8437 20.3201Z" fill="#FFF"/>
  <path d="M13.5003 25.5462C11.7131 25.5462 9.92589 25.4648 8.15084 25.3027C3.98162 24.9215 0.659845 21.7471 0.252732 17.7545C-0.084244 14.4489 -0.084244 11.097 0.252732 7.7914C0.659845 3.79878 3.98162 0.62444 8.15084 0.24324C11.7004 -0.0810799 15.2996 -0.0810799 18.8492 0.24324C23.0184 0.62444 26.3402 3.79928 26.7473 7.7914C27.0842 11.097 27.0842 14.4489 26.7473 17.7545C26.3402 21.7471 23.0184 24.922 18.8492 25.3027C17.0746 25.4648 15.2874 25.5462 13.5003 25.5462ZM13.5003 2.47805C11.7969 2.47805 10.0941 2.55539 8.40291 2.71006C5.47823 2.9775 3.14682 5.21481 2.85994 8.0299C2.53932 11.1773 2.53932 14.3696 2.85994 17.517C3.14682 20.3321 5.47823 22.5694 8.40291 22.8368C11.7853 23.1462 15.2152 23.1462 18.5976 22.8368C21.5223 22.5694 23.8537 20.3321 24.1406 17.517C24.4612 14.3696 24.4612 11.1773 24.1406 8.0299C23.8537 5.21481 21.5223 2.9775 18.5976 2.71006C16.9064 2.55539 15.2031 2.47805 13.5003 2.47805Z" fill="#FFF"/>
</svg>