<svg xmlns="http://www.w3.org/2000/svg" width="313" height="139" viewBox="0 0 313 139" fill="none">
  <path d="M312.846 136.712C312.155 134.875 311.551 132.873 311.033 130.871C309.48 124.636 308.761 118.171 308.761 111.706V6.92435C308.761 3.11759 306.056 -1.69104e-05 302.69 -1.69104e-05H9.09135C4.05658 -1.69104e-05 0 4.62717 0 10.3701L0 107.538C0 113.248 4.05658 117.908 9.09135 117.908H273.661C279.501 117.908 285.198 120.074 289.83 124.111C296.562 129.919 304.79 135.564 311.033 138.846C312.213 139.469 313.393 138.091 312.875 136.745L312.846 136.712Z" fill="#3CEBFF"/>
</svg>