<svg xmlns="http://www.w3.org/2000/svg" width="313" height="139" viewBox="0 0 313 139" fill="none">
  <path d="M0.154087 136.712C0.844569 134.875 1.44873 132.873 1.96659 130.871C3.52017 124.636 4.23943 118.171 4.23943 111.706V6.92435C4.23943 3.11759 6.94382 -1.69104e-05 10.3099 -1.69104e-05H303.909C308.943 -1.69104e-05 313 4.62717 313 10.3701L313 107.538C313 113.248 308.943 117.908 303.909 117.908H39.3389C33.4986 117.908 27.8021 120.074 23.1702 124.111C16.438 129.919 8.2097 135.564 1.96659 138.846C0.787017 139.469 -0.392538 138.091 0.125324 136.745L0.154087 136.712Z" fill="white"/>
</svg>