<svg xmlns="http://www.w3.org/2000/svg" width="32" height="28" viewBox="0 0 32 28" fill="none">
  <path d="M27.6228 20.5133L22.9771 12.283L18.3298 4.05135C18.0922 3.63036 17.7504 3.28077 17.3388 3.03771C16.9273 2.79465 16.4604 2.66669 15.9851 2.66669C15.5098 2.66669 15.043 2.79465 14.6314 3.03771C14.2198 3.28077 13.878 3.63036 13.6404 4.05135L8.99306 12.2831L4.34804 20.5132C4.11047 20.9341 3.98539 21.4115 3.98535 21.8975C3.98532 22.3834 4.11034 22.8609 4.34785 23.2818C4.58536 23.7027 4.927 24.0523 5.33843 24.2954C5.74987 24.5385 6.21661 24.6665 6.69176 24.6667H25.2772C25.7525 24.6668 26.2194 24.539 26.6311 24.296C27.0428 24.0531 27.3846 23.7036 27.6224 23.2826C27.8601 22.8617 27.9853 22.3841 27.9854 21.898C27.9854 21.4119 27.8604 20.9343 27.6228 20.5133Z" fill="#FFD21F"/>
  <path d="M20.9683 2.87009C20.4629 1.99745 19.7361 1.27283 18.8609 0.769027C17.9856 0.265227 16.9928 0 15.9822 0C14.9716 0 13.9789 0.265227 13.1036 0.769027C12.2284 1.27283 11.5016 1.99745 10.9962 2.87009L6.21392 11.1291L1.43163 19.3881C0.926475 20.2609 0.660574 21.2509 0.660645 22.2586C0.660715 23.2663 0.926755 24.2562 1.43204 25.1289C1.93732 26.0016 2.66404 26.7264 3.53919 27.2304C4.41434 27.7343 5.40709 27.9998 6.41771 28H25.5467C26.5573 27.9998 27.5501 27.7343 28.4252 27.2303C29.3004 26.7264 30.0271 26.0016 30.5323 25.1289C31.0376 24.2562 31.3036 23.2663 31.3037 22.2586C31.3038 21.2509 31.0379 20.2609 30.5327 19.3881L20.9683 2.87009ZM29.6584 24.625C29.2459 25.3485 28.6475 25.9492 27.9249 26.3655C27.2022 26.7818 26.3813 26.9984 25.5467 26.9932H6.41771C5.58431 26.993 4.76565 26.7741 4.04398 26.3585C3.3223 25.9428 2.72303 25.3452 2.30637 24.6255C1.88971 23.9058 1.67033 23.0894 1.67028 22.2584C1.67022 21.4274 1.88949 20.611 2.30606 19.8913L11.8706 3.37327C12.7415 1.86944 14.24 1.00665 15.9823 1.00665C17.7261 1.00665 19.2247 1.86912 20.0936 3.37296L29.6584 19.8915C30.0802 20.6093 30.3026 21.4263 30.3026 22.2582C30.3026 23.0902 30.0802 23.9072 29.6584 24.625ZM24.0538 12.1072L19.2707 3.84739C18.5738 2.64464 17.3752 1.95489 15.9823 1.95489C14.5905 1.95489 13.3926 2.64464 12.6956 3.84752L7.91238 12.1074L3.13108 20.3652C2.4341 21.5681 2.4341 22.9479 3.13108 24.1507C3.82806 25.3535 5.02589 26.0431 6.41771 26.0431H25.5467C26.9396 26.0431 28.1383 25.3533 28.8351 24.1506C29.532 22.9479 29.5321 21.5681 28.8351 20.3653L24.0538 12.1072ZM27.9609 23.6471C27.7212 24.0739 27.3703 24.4283 26.9454 24.6728C26.5205 24.9173 26.0373 25.043 25.5467 25.0364H6.41771C5.92866 25.0362 5.44827 24.9077 5.0248 24.6638C4.60133 24.4199 4.2497 24.0691 4.00524 23.6468C3.76079 23.2244 3.63211 22.7454 3.63214 22.2577C3.63218 21.7701 3.76092 21.291 4.00544 20.8687L8.78675 12.6107L13.57 4.35089C13.8146 3.92848 14.1664 3.5777 14.59 3.33381C15.0136 3.08993 15.4941 2.96153 15.9833 2.96153C16.4725 2.96153 16.953 3.08993 17.3766 3.33381C17.8003 3.5777 18.152 3.92848 18.3966 4.35089L23.1799 12.6106L27.9609 20.8689C28.212 21.289 28.3445 21.7689 28.3445 22.258C28.3445 22.747 28.212 23.227 27.9609 23.6471ZM15.9823 8.78243C15.6973 8.78326 15.4155 8.84132 15.1535 8.95314C14.8916 9.06497 14.6549 9.22827 14.4576 9.43329C14.2712 9.62383 14.1257 9.85033 14.0302 10.0989C13.9346 10.3475 13.891 10.6129 13.902 10.8789L14.1435 16.376C14.1882 17.392 14.9959 18.1882 15.9823 18.1882C16.9621 18.1882 17.7705 17.3939 17.8228 16.376L18.0626 10.8799C18.0742 10.6142 18.0311 10.3488 17.936 10.1003C17.8409 9.85173 17.6958 9.6252 17.5097 9.43461C17.3122 9.22908 17.0751 9.06538 16.8126 8.95332C16.5502 8.84126 16.2678 8.78314 15.9823 8.78243ZM16.8143 16.3285C16.7891 16.8147 16.4316 17.1814 15.9823 17.1814C15.5378 17.1814 15.1732 16.8084 15.1522 16.332L14.9106 10.8351C14.9061 10.7049 14.9282 10.5751 14.9757 10.4538C15.0232 10.3324 15.0951 10.222 15.1869 10.1293C15.2895 10.0217 15.4131 9.93601 15.55 9.8775C15.687 9.81899 15.8344 9.78885 15.9834 9.78891C16.1323 9.78898 16.2797 9.81925 16.4166 9.87787C16.5535 9.9365 16.677 10.0223 16.7796 10.13C16.8711 10.2226 16.9426 10.3329 16.9897 10.4541C17.0369 10.5753 17.0587 10.7048 17.0538 10.8347L16.8143 16.3285ZM15.9823 18.6725C15.6182 18.6728 15.2624 18.7807 14.9599 18.9827C14.6573 19.1846 14.4216 19.4714 14.2825 19.8068C14.1434 20.1423 14.1072 20.5114 14.1784 20.8674C14.2496 21.2234 14.425 21.5503 14.6826 21.8069C14.9401 22.0635 15.2682 22.2381 15.6253 22.3088C15.9823 22.3796 16.3524 22.3431 16.6888 22.2041C17.0251 22.0651 17.3125 21.8298 17.5147 21.528C17.717 21.2261 17.8249 20.8713 17.8249 20.5083C17.8243 20.0213 17.63 19.5544 17.2845 19.2102C16.939 18.866 16.4707 18.6726 15.9823 18.6725ZM15.9823 21.3372C15.8179 21.3369 15.6573 21.288 15.5208 21.1967C15.3843 21.1054 15.278 20.9758 15.2153 20.8243C15.1526 20.6728 15.1364 20.5062 15.1686 20.3455C15.2009 20.1848 15.2802 20.0372 15.3965 19.9214C15.5129 19.8056 15.661 19.7269 15.8223 19.695C15.9835 19.6632 16.1506 19.6797 16.3024 19.7425C16.4542 19.8053 16.584 19.9115 16.6753 20.0478C16.7665 20.1841 16.8153 20.3444 16.8152 20.5083C16.815 20.7283 16.7271 20.9393 16.5709 21.0947C16.4147 21.2502 16.203 21.3374 15.9823 21.3372Z" fill="#25293D"/>
  <path d="M20.0805 3.29099C19.2152 1.78921 17.723 0.927734 15.9866 0.927734C14.2518 0.927734 12.7595 1.78915 11.8923 3.29112L2.36844 19.7867C1.95364 20.5055 1.7353 21.3208 1.73535 22.1506C1.73541 22.9805 1.95385 23.7957 2.36875 24.5144C2.78364 25.2331 3.38037 25.83 4.09898 26.245C4.81759 26.6601 5.63277 26.8787 6.46264 26.879H25.5105C26.3403 26.8787 27.1555 26.6601 27.8741 26.2451C28.5927 25.83 29.1894 25.2332 29.6043 24.5145C30.0192 23.7958 30.2376 22.9806 30.2377 22.1508C30.2378 21.3209 30.0194 20.5057 29.6047 19.7869L20.0805 3.29099ZM28.7848 24.0403C28.0909 25.2413 26.8974 25.9302 25.5105 25.9302H6.46264C5.07673 25.9302 3.88385 25.2413 3.18995 24.0403C2.49606 22.8392 2.49587 21.4613 3.18995 20.26L7.95097 12.0134L12.7139 3.76478C13.408 2.56354 14.6008 1.87473 15.9867 1.87473C17.3737 1.87473 18.5671 2.56354 19.2611 3.76465L24.024 12.0132L28.7851 20.26C29.479 21.4613 29.479 22.8391 28.7848 24.0403Z" fill="#FF914C"/>
  <path d="M15.9864 19.575C15.8228 19.5753 15.6629 19.6241 15.5269 19.7152C15.391 19.8064 15.2851 19.9358 15.2227 20.0871C15.1603 20.2384 15.1441 20.4048 15.1763 20.5653C15.2084 20.7258 15.2873 20.8731 15.4032 20.9888C15.519 21.1044 15.6665 21.1831 15.8271 21.2149C15.9876 21.2467 16.154 21.2302 16.3052 21.1675C16.4564 21.1048 16.5856 20.9987 16.6765 20.8626C16.7674 20.7265 16.8159 20.5665 16.8159 20.4028C16.8156 20.1831 16.7281 19.9724 16.5726 19.8171C16.417 19.6619 16.2062 19.5748 15.9864 19.575Z" fill="#FF914C"/>
  <path d="M15.9863 9.69843C15.8383 9.69902 15.6919 9.72942 15.5559 9.78782C15.4198 9.84621 15.297 9.9314 15.1946 10.0383C15.1032 10.1309 15.0316 10.2411 14.9843 10.3623C14.937 10.4835 14.915 10.6131 14.9195 10.7431L15.16 16.2325C15.1809 16.708 15.544 17.0808 15.9866 17.0808C16.4341 17.0808 16.7902 16.7146 16.8151 16.229L17.0539 10.7435C17.0588 10.6137 17.0371 10.4844 16.9901 10.3633C16.9431 10.2423 16.8719 10.1322 16.7808 10.0397C16.6782 9.93224 16.5549 9.84663 16.4184 9.78799C16.2818 9.72935 16.1349 9.69889 15.9863 9.69843Z" fill="#FF914C"/>
</svg>