<svg xmlns="http://www.w3.org/2000/svg" width="23" height="23" viewBox="0 0 23 23" fill="none">
  <path d="M22.5 11.1406C22.5 17.0024 17.5902 21.7812 11.5 21.7812C5.40979 21.7812 0.5 17.0024 0.5 11.1406C0.5 5.27881 5.40979 0.5 11.5 0.5C17.5902 0.5 22.5 5.27881 22.5 11.1406Z" fill="#25293D" stroke="white"/>
  <path d="M17.0563 6.13427H15.0965L14.8683 5.45111C14.7583 5.11939 14.5463 4.83077 14.2623 4.62633C13.9784 4.42189 13.6371 4.31207 13.2869 4.3125H10.4673C10.1173 4.31223 9.7761 4.42213 9.49226 4.62655C9.20842 4.83097 8.99642 5.11951 8.88639 5.45111L8.65774 6.13427H6.69799C6.25609 6.13476 5.83243 6.31015 5.51996 6.62197C5.20749 6.93379 5.03173 7.35657 5.03125 7.79755V14.4926C5.03222 14.9332 5.20819 15.3555 5.52061 15.667C5.83302 15.9784 6.25641 16.1535 6.69799 16.154H17.0581C17.4997 16.1531 17.9229 15.9775 18.2349 15.6657C18.547 15.3539 18.7225 14.9314 18.723 14.4907V7.79573C18.722 7.35507 18.5461 6.93275 18.2337 6.62132C17.9212 6.3099 17.4979 6.13476 17.0563 6.13427ZM17.8102 14.4907C17.81 14.6902 17.7305 14.8815 17.5891 15.0225C17.4478 15.1635 17.2562 15.2429 17.0563 15.2431H6.69799C6.49811 15.2429 6.30647 15.1635 6.16513 15.0225C6.02379 14.8815 5.94428 14.6902 5.94403 14.4907V7.79573C5.94476 7.59657 6.02448 7.40581 6.16577 7.26515C6.30706 7.1245 6.49842 7.0454 6.69799 7.04516H8.9868C9.08255 7.04509 9.17585 7.01497 9.2535 6.95906C9.33114 6.90315 9.3892 6.82429 9.41946 6.73364L9.75217 5.73758C9.80213 5.58776 9.89811 5.45746 10.0265 5.36516C10.1549 5.27286 10.3091 5.22325 10.4673 5.22339H13.2869C13.4452 5.22321 13.5995 5.27286 13.7279 5.36525C13.8563 5.45765 13.9523 5.5881 14.0021 5.73804L14.3348 6.73364C14.3651 6.82429 14.4231 6.90315 14.5008 6.95906C14.5784 7.01497 14.6717 7.04509 14.7675 7.04516H17.0563C17.2562 7.0454 17.4478 7.12475 17.5891 7.2658C17.7305 7.40685 17.81 7.59808 17.8102 7.79755V14.4907Z" fill="white"/>
  <path d="M11.9696 7.45789C11.2926 7.45789 10.6308 7.65864 10.0679 8.03476C9.50505 8.41087 9.06632 8.94546 8.80725 9.57092C8.54818 10.1964 8.48039 10.8846 8.61246 11.5486C8.74454 12.2126 9.07054 12.8225 9.54925 13.3012C10.028 13.7799 10.6379 14.1059 11.3019 14.238C11.9658 14.3701 12.6541 14.3023 13.2795 14.0432C13.905 13.7841 14.4396 13.3454 14.8157 12.7825C15.1918 12.2196 15.3926 11.5578 15.3926 10.8808C15.3916 9.9733 15.0307 9.10323 14.3889 8.46151C13.7472 7.81979 12.8772 7.45885 11.9696 7.45789ZM11.9696 13.391C11.4732 13.391 10.9879 13.2438 10.5751 12.9679C10.1623 12.6921 9.84054 12.3001 9.65055 11.8414C9.46056 11.3827 9.41085 10.878 9.50771 10.3911C9.60456 9.9042 9.84363 9.45693 10.1947 9.10588C10.5457 8.75483 10.993 8.51576 11.4799 8.4189C11.9668 8.32205 12.4716 8.37176 12.9302 8.56174C13.3889 8.75173 13.7809 9.07346 14.0568 9.48626C14.3326 9.89905 14.4798 10.3844 14.4798 10.8808C14.4791 11.5463 14.2144 12.1844 13.7438 12.655C13.2732 13.1256 12.6351 13.3903 11.9696 13.391Z" fill="#3CEBFF"/>
  <path d="M16.4103 8.93806C16.6658 8.93806 16.8729 8.73096 16.8729 8.4755C16.8729 8.22003 16.6658 8.01294 16.4103 8.01294C16.1548 8.01294 15.9478 8.22003 15.9478 8.4755C15.9478 8.73096 16.1548 8.93806 16.4103 8.93806Z" fill="#3CEBFF"/>
</svg>