<svg xmlns="http://www.w3.org/2000/svg" width="70" height="54" viewBox="0 0 70 54" fill="none">
  <path d="M21.806 42.2337C19.9629 43.0375 17.8173 42.195 17.0135 40.3521L16.3962 38.9365C14.9596 35.6427 15.7488 31.7917 18.36 29.3538C20.324 27.5199 20.8188 24.5708 19.563 22.1824C18.188 19.567 15.0541 18.3503 12.2737 19.3523C9.33189 20.4106 7.6849 23.5867 8.52179 26.5797C8.59658 26.8473 8.69147 27.1135 8.80385 27.3711C9.60766 29.2142 8.76516 31.3598 6.92225 32.1636C5.07933 32.9674 2.93357 32.1249 2.12976 30.282C1.88338 29.717 1.67474 29.131 1.50958 28.5404C-0.348925 21.8931 3.29452 14.8474 9.80523 12.5023C15.9856 10.2752 22.9513 12.98 26.0081 18.7941C28.7862 24.0784 27.6848 30.6093 23.3294 34.6761C22.9691 35.0124 22.8652 35.5548 23.0706 36.0259L23.6879 37.4415C24.4914 39.2842 23.649 41.4299 21.806 42.2337Z" fill="#686868"/>
  <path d="M26.1367 52.1632C24.2936 52.967 22.148 52.1245 21.3442 50.2816L21.3321 50.254C20.5283 48.4109 21.3708 46.2653 23.2137 45.4615C25.0568 44.6577 27.2024 45.5002 28.0062 47.3431L28.0183 47.3707C28.8221 49.2138 27.9796 51.3594 26.1367 52.1632Z" fill="#686868"/>
  <path d="M4.45954 27.254C4.62402 27.845 4.83362 28.43 5.08 28.9951C5.65287 30.3086 6.90705 31.1146 8.2475 31.1767C7.89844 31.5908 7.45217 31.9322 6.92209 32.1634C5.08027 32.9667 2.93369 32.1253 2.12974 30.2818C1.88337 29.7167 1.67541 29.1309 1.51093 28.5401C-0.349081 21.8918 3.29573 14.8466 9.80562 12.5014C10.0389 12.4176 10.2734 12.341 10.5091 12.272C5.43808 15.2693 2.82745 21.415 4.45954 27.254Z" fill="#686868"/>
  <path d="M21.31 28.0668C18.6992 30.5049 17.9092 34.357 19.3458 37.6506L19.963 39.0657C20.5359 40.3792 21.7917 41.1844 23.1321 41.2466C22.7831 41.6607 22.3368 42.0021 21.8067 42.2333C19.9633 43.0374 17.8183 42.1952 17.0144 40.3517L16.3972 38.9366C14.9608 35.6429 15.749 31.7916 18.3614 29.3529C20.3249 27.5184 20.819 24.5712 19.5631 22.1828C18.3827 19.936 15.9049 18.7213 13.4676 19.0601C13.9807 18.6399 14.571 18.3011 15.2241 18.0658C18.0048 17.0634 21.1381 18.2798 22.5132 20.8959C23.7693 23.2843 23.2735 26.2324 21.31 28.0668Z" fill="#686868"/>
  <path d="M27.4628 51.1759C27.1138 51.5901 26.6675 51.9315 26.1374 52.1627C24.294 52.9667 22.149 52.1245 21.3451 50.281L21.3328 50.2527C20.5295 48.4109 21.3709 46.2643 23.2144 45.4604C23.7445 45.2292 24.2983 45.1344 24.8392 45.1604C23.9735 46.1867 23.7092 47.655 24.2814 48.9668L24.2937 48.9951C24.8666 50.3084 26.1224 51.1137 27.4628 51.1759Z" fill="#686868"/>
  <path d="M50.8469 41.879C48.9047 41.3586 47.7523 39.3623 48.2727 37.4201L48.6723 35.9284C49.6024 32.4574 52.6201 29.9382 56.1816 29.6597C58.8606 29.4501 61.0858 27.4527 61.593 24.8023C62.1482 21.9 60.4564 18.9952 57.6576 18.0452C54.6976 17.0388 51.4299 18.4956 50.2184 21.3575C50.1101 21.6133 50.0184 21.8807 49.9456 22.1521C49.4252 24.0943 47.4289 25.2468 45.4867 24.7264C43.5446 24.206 42.3921 22.2097 42.9125 20.2675C43.072 19.6721 43.2741 19.0839 43.5133 18.5191C46.204 12.1629 53.4451 8.9251 59.9976 11.1502C66.2185 13.2616 69.979 19.7189 68.7446 26.1705C67.6227 32.0342 62.6902 36.4541 56.7495 36.9189C56.2581 36.9573 55.8386 37.3166 55.7056 37.813L55.3059 39.3047C54.7854 41.2469 52.789 42.3995 50.8469 41.879Z" fill="#FF914C"/>
  <path d="M48.0421 52.3422C46.0999 51.8219 44.9475 49.8255 45.4678 47.8834L45.4756 47.8542C45.996 45.9121 47.9923 44.7596 49.9345 45.28C51.8767 45.8004 53.0292 47.7967 52.5088 49.7389L52.501 49.768C51.9806 51.7102 49.9843 52.8626 48.0421 52.3422Z" fill="#FF914C"/>
  <path d="M46.6206 19.353C46.3808 19.9175 46.1799 20.5057 46.0204 21.1011C45.6494 22.4852 46.1277 23.8973 47.137 24.7815C46.606 24.8877 46.0442 24.8765 45.4855 24.7268C43.5445 24.2067 42.3907 22.2108 42.9112 20.2681C43.0708 19.6726 43.2734 19.085 43.5132 18.5205C46.2033 12.1626 53.4452 8.92605 59.9973 11.1504C60.232 11.2303 60.463 11.3165 60.6904 11.4095C54.8569 10.5919 48.9844 13.7699 46.6206 19.353Z" fill="#FF914C"/>
  <path d="M59.2896 30.4922C55.7283 30.771 52.7093 33.2906 51.7792 36.7613L51.3796 38.2526C51.0087 39.6367 51.4887 41.0493 52.498 41.9335C51.9668 42.0397 51.4052 42.0285 50.8465 41.8788C48.9038 41.3583 47.7517 39.3627 48.2723 37.4201L48.6719 35.9288C49.6019 32.4581 52.6192 29.9381 56.1822 29.6597C58.8611 29.4494 61.0848 27.4528 61.5916 24.8024C62.0693 22.3098 60.8891 19.8154 58.7722 18.5611C59.4353 18.5523 60.108 18.6554 60.7655 18.8787C63.5647 19.8282 65.2564 22.7328 64.7007 25.6356C64.1939 28.2858 61.9684 30.2818 59.2896 30.4922Z" fill="#FF914C"/>
  <path d="M49.6944 52.3967C49.1632 52.5029 48.6016 52.4917 48.0429 52.342C46.1002 51.8215 44.9482 49.826 45.4687 47.8833L45.4767 47.8535C45.9968 45.9125 47.9927 44.7587 49.9355 45.2792C50.494 45.4289 50.9862 45.7001 51.393 46.0576C50.0763 46.3204 48.9543 47.3037 48.5839 48.686L48.5759 48.7158C48.2051 50.1 48.685 51.5126 49.6944 52.3967Z" fill="#FF914C"/>
  <path d="M36.6339 37.0425C34.3764 37.0425 32.5464 35.2124 32.5464 32.9549V31.2211C32.5464 27.1865 35.087 23.5777 38.8684 22.2406C41.7127 21.2349 43.5456 18.422 43.3252 15.4003C43.084 12.0915 40.4051 9.43277 37.0937 9.21592C33.5912 8.98458 30.4708 11.514 29.9887 14.9699C29.9456 15.2787 29.9237 15.5954 29.9237 15.9109C29.9237 18.1684 28.0937 19.9985 25.8362 19.9985C23.5787 19.9985 21.7487 18.1684 21.7487 15.9109C21.7487 15.219 21.7969 14.5222 21.8921 13.8402C22.963 6.16518 29.8749 0.549608 37.6278 1.05836C44.9878 1.54032 50.9423 7.45053 51.4785 14.8059C51.9658 21.4911 47.9009 27.7178 41.5933 29.9481C41.0716 30.1325 40.7212 30.6441 40.7212 31.2211V32.9549C40.7214 35.2124 38.8914 37.0425 36.6339 37.0425Z" fill="#3CEBFF"/>
  <path d="M36.634 49.2038C34.3766 49.2038 32.5465 47.3738 32.5465 45.1163V45.0824C32.5465 42.8249 34.3766 40.9949 36.634 40.9949C38.8915 40.9949 40.7216 42.8249 40.7216 45.0824V45.1163C40.7216 47.3738 38.8915 49.2038 36.634 49.2038Z" fill="#3CEBFF"/>
  <path d="M25.5063 13.8397C25.4103 14.5215 25.3634 15.2179 25.3634 15.91C25.3634 17.5188 26.2923 18.9112 27.644 19.5768C27.0988 19.8463 26.4863 19.9974 25.8371 19.9974C23.5811 19.9974 21.7498 18.168 21.7498 15.91C21.7498 15.2179 21.7987 14.5217 21.8947 13.8397C22.9646 6.16298 29.8776 0.548509 37.6298 1.05685C37.9075 1.07517 38.1831 1.1017 38.4567 1.13643C31.8927 1.94502 26.4475 7.09805 25.5063 13.8397Z" fill="#3CEBFF"/>
  <path d="M42.4822 22.2391C38.7011 23.5764 36.1593 27.1861 36.1593 31.2204V32.9538C36.1593 34.5626 37.0902 35.955 38.4419 36.6206C37.8968 36.8901 37.2842 37.0412 36.6351 37.0412C34.377 37.0412 32.5477 35.2118 32.5477 32.9538V31.2204C32.5477 27.1861 35.0875 23.5764 38.8706 22.2391C41.7147 21.2325 43.5461 18.4212 43.3256 15.3995C43.1194 12.5576 41.1144 10.1954 38.4542 9.45009C39.1708 9.24801 39.9303 9.1642 40.7082 9.21533C44.0198 9.43177 46.6984 12.09 46.9393 15.3995C47.1597 18.4212 45.3263 21.2325 42.4822 22.2391Z" fill="#3CEBFF"/>
  <path d="M38.4417 48.7826C37.8966 49.0521 37.284 49.2032 36.6349 49.2032C34.3769 49.2032 32.5475 47.3738 32.5475 45.1158V45.081C32.5475 42.8251 34.3769 40.9937 36.6349 40.9937C37.2842 40.9937 37.8966 41.1447 38.4417 41.4142C37.0902 42.0818 36.1591 43.4743 36.1591 45.081V45.1158C36.1592 46.7246 37.0902 48.117 38.4417 48.7826Z" fill="#3CEBFF"/>
  <path d="M28.9463 46.933C28.4479 45.7905 27.5348 44.9105 26.3745 44.455C25.2144 43.9994 23.9461 44.023 22.8039 44.5213C21.6616 45.0195 20.7815 45.9328 20.3259 47.0929C19.8705 48.253 19.894 49.5212 20.3917 50.6625L20.4041 50.6913C20.9025 51.8337 21.8157 52.7137 22.9761 53.1693C23.5288 53.3864 24.1061 53.4945 24.6825 53.4945C25.316 53.4945 25.9486 53.3637 26.5466 53.1029C27.689 52.6047 28.5691 51.6914 29.0245 50.5313C29.4801 49.3712 29.4564 48.103 28.9587 46.9617L28.9463 46.933ZM27.1156 49.7816C26.8603 50.4319 26.367 50.9438 25.7268 51.223C25.0864 51.5022 24.3754 51.5153 23.7255 51.26C23.0752 51.0048 22.5633 50.5115 22.2845 49.8723L22.2721 49.8436C21.9927 49.2033 21.9795 48.4926 22.235 47.8423C22.4903 47.192 22.9836 46.6802 23.6237 46.401C23.959 46.2548 24.3135 46.1815 24.6686 46.1815C24.9917 46.1815 25.3152 46.2422 25.625 46.3639C26.2752 46.6192 26.7871 47.1125 27.0659 47.7517L27.0784 47.7804C27.3577 48.4208 27.3708 49.1315 27.1156 49.7816Z" fill="#1F2336"/>
  <path d="M67.2452 15.2823C66.9118 14.8246 66.2703 14.7239 65.8125 15.0574C65.3547 15.3909 65.2541 16.0324 65.5876 16.49C67.5831 19.2286 68.3662 22.6868 67.7364 25.9778C66.7004 31.3899 62.1487 35.4685 56.6675 35.8962C55.7461 35.9681 54.9612 36.6308 54.7134 37.5476L54.3143 39.0388C54.1333 39.714 53.7004 40.2781 53.0954 40.6276C52.4907 40.9768 51.7859 41.0693 51.111 40.8883C50.4363 40.7078 49.8723 40.2752 49.5231 39.6702C49.1738 39.0652 49.0812 38.3605 49.2622 37.6854L49.6614 36.1928C50.4792 33.1417 53.131 30.9272 56.2598 30.6822C59.3979 30.4372 62.0046 28.0991 62.5986 24.9959C63.249 21.5931 61.2654 18.1874 57.9853 17.0742C56.1366 16.4457 54.1307 16.646 52.4576 17.519C52.5522 16.6035 52.5703 15.6714 52.5018 14.7304C52.4348 13.8121 52.2879 12.9153 52.0699 12.0462C54.5475 11.2679 57.2117 11.2876 59.6678 12.1211C60.6294 12.4475 61.5482 12.8952 62.3986 13.4518C62.5718 13.5652 62.7665 13.6195 62.9593 13.6195C63.2936 13.6195 63.6215 13.4561 63.8182 13.1556C64.1285 12.6817 63.9957 12.0462 63.5218 11.7359C62.5271 11.0847 61.4521 10.5609 60.327 10.1791C57.4537 9.2038 54.3377 9.18192 51.4427 10.0942C49.2346 4.50552 43.9381 0.443008 37.6953 0.0342006C29.8385 -0.481526 22.7883 4.89013 21.1044 12.445C17.5378 10.509 13.29 10.1562 9.45787 11.5362C2.44402 14.0631 -1.48081 21.6536 0.522211 28.8141C0.696946 29.4447 0.921585 30.0764 1.18998 30.692C1.68834 31.8345 2.60152 32.7145 3.76164 33.1699C4.92161 33.6253 6.18946 33.6017 7.33207 33.1033C8.47441 32.605 9.35437 31.6915 9.8098 30.5311C10.2652 29.3707 10.2416 28.1029 9.74349 26.9615C9.65148 26.7505 9.57259 26.5289 9.50942 26.3049C8.81609 23.8241 10.1827 21.194 12.6213 20.3169C14.9232 19.4872 17.5174 20.4943 18.6559 22.6594C19.6965 24.6399 19.2868 27.0844 17.6593 28.6042C14.7308 31.3394 13.8458 35.6567 15.4572 39.3463L16.0741 40.7617C16.8387 42.5146 18.5577 43.5625 20.3591 43.5624C20.9802 43.5624 21.6114 43.4377 22.2162 43.1743C23.3584 42.676 24.2385 41.7625 24.694 40.6021C25.1494 39.4418 25.1257 38.1739 24.6278 37.0329L24.0109 35.6159C23.9772 35.5388 23.9932 35.4591 24.0296 35.4253C24.4561 35.0265 24.8604 34.599 25.2312 34.1546C25.5939 33.7197 25.5355 33.0731 25.1004 32.7102C24.6657 32.3475 24.0191 32.4059 23.6562 32.841C23.3396 33.2206 22.9939 33.5861 22.6304 33.926C21.9525 34.5575 21.7518 35.566 22.1308 36.435L22.7478 37.8525C23.0271 38.4921 23.0404 39.2025 22.785 39.8528C22.5297 40.5032 22.0364 41.0152 21.397 41.2942C20.0751 41.8699 18.5305 41.2632 17.9541 39.942L17.3371 38.5262C16.0728 35.631 16.7649 32.2459 19.0594 30.103C21.3601 27.9544 21.9407 24.5013 20.4715 21.7051C18.8592 18.6386 15.1851 17.2123 11.9267 18.3872C8.48275 19.6259 6.55342 23.3462 7.53511 26.8591C7.62412 27.1747 7.73459 27.4847 7.8638 27.7813C8.14313 28.421 8.15639 29.1315 7.90099 29.7817C7.64572 30.4321 7.15255 30.9442 6.51227 31.2234C5.87199 31.5027 5.16143 31.5159 4.5113 31.2607C3.86117 31.0054 3.34927 30.5122 3.07022 29.8722C2.84025 29.3448 2.64801 28.8043 2.49816 28.2638C0.782536 22.1303 4.14515 15.6301 10.1531 13.4657C13.669 12.1996 17.596 12.639 20.7772 14.6269C20.743 15.0538 20.7237 15.4828 20.7237 15.91C20.7237 18.7293 23.0174 21.023 25.8367 21.023L25.8511 21.0226C26.7265 23.5971 26.7243 26.3998 25.8273 28.9953C25.6423 29.5306 25.9264 30.1144 26.4615 30.2994C26.5726 30.3376 26.6855 30.3558 26.7965 30.3558C27.2216 30.3558 27.6191 30.0895 27.7658 29.6651C28.7846 26.717 28.8135 23.5389 27.8709 20.5996C29.6806 19.8115 30.9495 18.0064 30.9495 15.9099C30.9495 15.6411 30.9681 15.3723 31.0045 15.1106C31.4132 12.1822 34.0592 10.0422 37.0271 10.2381C39.8306 10.4217 42.0986 12.6725 42.3028 15.4737C42.4897 18.0358 40.937 20.4204 38.527 21.2726C34.3368 22.7541 31.5213 26.7516 31.5213 31.2199V32.9537C31.5213 35.773 33.8149 38.0667 36.6342 38.0667C39.4534 38.0667 41.7471 35.773 41.7471 32.9537V31.2199C41.7471 31.0788 41.8246 30.9529 41.9357 30.9137C46.7455 29.2129 50.3336 25.3379 51.8071 20.6626C53.0911 19.0167 55.3361 18.3393 57.326 19.0159C59.6431 19.8022 61.0439 22.2074 60.5847 24.6102C60.1638 26.808 58.32 28.464 56.1001 28.6372C52.1065 28.9499 48.7231 31.7727 47.6807 35.662L47.2815 37.1544C46.9587 38.3581 47.124 39.6157 47.7472 40.6952C48.3706 41.7751 49.3772 42.5472 50.5808 42.869C50.9829 42.9769 51.3912 43.0304 51.7968 43.0304C52.6049 43.0304 53.4027 42.8183 54.1214 42.4034C55.2007 41.7802 55.9728 40.7739 56.2958 39.5692L56.6943 38.0798C56.7174 37.9944 56.7802 37.9442 56.8273 37.9405C63.2274 37.4412 68.5418 32.6804 69.751 26.3631C70.487 22.5168 69.5738 18.4779 67.2452 15.2823ZM41.2519 28.9802C40.3214 29.3092 39.6961 30.2094 39.6961 31.2201V32.9539C39.6961 34.6423 38.3224 36.016 36.634 36.016C34.9456 36.016 33.5721 34.6423 33.5721 32.9539V31.2201C33.5721 27.6191 35.8379 24.3987 39.2105 23.2063C42.4894 22.0469 44.6022 18.8059 44.3482 15.3247C44.0701 11.5083 40.9802 8.44183 37.1616 8.19176C36.99 8.18041 36.8197 8.1748 36.6499 8.1748C32.8265 8.1748 29.5061 11.0094 28.9735 14.8272C28.9238 15.1824 28.8987 15.5466 28.8987 15.91C28.8987 17.5984 27.525 18.9721 25.8366 18.9721C24.148 18.9721 22.7745 17.5984 22.7745 15.91C22.7745 15.2656 22.8195 14.6166 22.9082 13.981C23.9056 6.83408 30.3412 1.60763 37.5613 2.0807C44.4135 2.52943 49.9572 8.03179 50.4564 14.8795C50.9099 21.105 47.1251 26.9035 41.2519 28.9802Z" fill="#1F2336"/>
  <path d="M50.1996 44.2894C48.9958 43.9669 47.7384 44.1323 46.659 44.7555C45.5795 45.3787 44.8075 46.3849 44.4856 47.5863L44.4771 47.6178C43.8113 50.1031 45.2913 52.6667 47.7764 53.3325C48.1795 53.4406 48.5842 53.4921 48.9829 53.4921C51.0428 53.4921 52.9334 52.115 53.4918 50.0312L53.4991 50.0041C53.8217 48.8002 53.6562 47.5428 53.0331 46.4633C52.4096 45.3842 51.4035 44.6121 50.1996 44.2894ZM51.5175 49.4755L51.5103 49.5026C51.137 50.8956 49.7 51.7249 48.3072 51.3518C46.9143 50.9786 46.0847 49.5417 46.4573 48.1513L46.4658 48.1198C46.6465 47.445 47.0793 46.8812 47.6843 46.5318C48.2892 46.1825 48.9937 46.0898 49.6687 46.2706C50.3436 46.4515 50.9076 46.8842 51.2566 47.4891C51.606 48.0939 51.6988 48.7987 51.5175 49.4755Z" fill="#1F2336"/>
  <path d="M36.6342 39.9695C33.8149 39.9695 31.5214 42.2632 31.5214 45.0824V45.1164C31.5214 47.9356 33.8149 50.2293 36.6342 50.2293C39.4535 50.2293 41.7472 47.9356 41.7472 45.1164V45.0824C41.7472 42.263 39.4535 39.9695 36.6342 39.9695ZM39.6963 45.1162C39.6963 46.8046 38.3226 48.1783 36.6342 48.1783C34.9458 48.1783 33.5722 46.8046 33.5722 45.1162V45.0823C33.5722 43.3939 34.9459 42.0202 36.6342 42.0202C38.3226 42.0202 39.6963 43.3939 39.6963 45.0823V45.1162Z" fill="#1F2336"/>
</svg>