<svg xmlns="http://www.w3.org/2000/svg" width="45" height="48" viewBox="0 0 45 48" fill="none">
  <path fill-rule="evenodd" clip-rule="evenodd" d="M0.766269 7.09424H43.497V13.3106C43.497 19.8786 38.1231 25.2524 31.555 25.2524H12.7081C6.14005 25.2524 0.766174 19.8785 0.766174 13.3106V7.09424H0.766269Z" fill="#FF914C"/>
  <path fill-rule="evenodd" clip-rule="evenodd" d="M3.68378 10.012V13.3108C3.68378 18.2685 7.75045 22.3352 12.7081 22.3352H31.5551C36.5127 22.3352 40.5794 18.2685 40.5794 13.3108V10.012H3.68378Z" fill="white"/>
  <path fill-rule="evenodd" clip-rule="evenodd" d="M7.93947 1.67847H36.3238C36.6331 1.67847 36.8854 1.9308 36.8854 2.24007V10.2417C36.8854 16.6589 33.4088 23.4591 28.2465 27.3214C25.1549 29.6345 24.1842 33.7411 25.9135 37.1933L27.6483 40.6568H16.615L18.3498 37.1933C20.0792 33.7407 19.1087 29.6346 16.0168 27.3214C10.8543 23.459 7.37787 16.6589 7.37787 10.2417V2.24007C7.37796 1.9308 7.6302 1.67847 7.93947 1.67847Z" fill="#FF914C"/>
  <path fill-rule="evenodd" clip-rule="evenodd" d="M26.4644 20.9588L22.1313 18.3881L17.7985 20.9587L18.9045 16.0434L15.1207 12.717L20.1373 12.2498L22.1316 7.62329L24.1263 12.2501L29.1425 12.7171L25.3586 16.0437L26.4644 20.9588Z" fill="white"/>
  <path fill-rule="evenodd" clip-rule="evenodd" d="M6.88409 0.705322H37.3791C38.0956 0.705322 38.6819 1.29159 38.6819 2.00811V2.0082C38.6819 2.72473 38.0956 3.3109 37.3791 3.3109H6.88409C6.16747 3.3109 5.5813 2.72463 5.5813 2.0082V2.00811C5.58139 1.29159 6.16756 0.705322 6.88409 0.705322Z" fill="#FF914C"/>
  <path fill-rule="evenodd" clip-rule="evenodd" d="M16.4256 36.1943H27.8378C29.1678 36.1943 30.256 37.2825 30.256 38.6126V43.6319H14.0074V38.6126C14.0074 37.2825 15.0956 36.1943 16.4256 36.1943Z" fill="#A09F9F"/>
  <path fill-rule="evenodd" clip-rule="evenodd" d="M10.922 39.5657H33.3415C34.6516 39.5657 35.7234 40.6375 35.7234 41.9476V46.9292C35.7234 47.1298 35.5593 47.2939 35.3588 47.2939H8.90465C8.70409 47.2939 8.54004 47.1298 8.54004 46.9292V41.9476C8.54004 40.6375 9.61186 39.5657 10.922 39.5657Z" fill="#A09F9F"/>
  <path fill-rule="evenodd" clip-rule="evenodd" d="M15.5799 42.0117H28.6836C28.8841 42.0117 29.0483 42.1759 29.0483 42.3764V44.4836C29.0483 44.6842 28.8842 44.8484 28.6836 44.8484H15.5799C15.3794 44.8484 15.2152 44.6842 15.2152 44.4836V42.3764C15.2152 42.1759 15.3794 42.0117 15.5799 42.0117Z" fill="white"/>
  <path fill-rule="evenodd" clip-rule="evenodd" d="M15.921 42.718H28.3423V44.1421H15.921V42.718ZM15.2151 45.5541H29.0481C29.438 45.5541 29.754 45.2386 29.754 44.8484V42.0123C29.754 41.6216 29.438 41.3065 29.0481 41.3065H15.2151C14.8254 41.3065 14.5092 41.6217 14.5092 42.0123V44.8484C14.5092 45.2386 14.8253 45.5541 15.2151 45.5541ZM24.8925 15.5135C24.6986 15.6835 24.6131 15.9463 24.6699 16.1984L25.4163 19.5162L22.4916 17.7814C22.3805 17.7148 22.2559 17.6829 22.1313 17.6829C22.0068 17.6829 21.8823 17.7149 21.7713 17.7814L18.8466 19.5162L19.593 16.1984C19.6498 15.9463 19.5642 15.6835 19.3705 15.5135L16.8165 13.2678L20.2027 12.9522C20.4597 12.9287 20.6834 12.7657 20.7855 12.5288L22.1316 9.40591L23.4779 12.5297C23.5802 12.7668 23.8035 12.9288 24.0607 12.9531L27.4465 13.2679L24.8925 15.5135ZM29.2081 12.0137L24.6087 11.5858L22.7799 7.34387C22.6684 7.08504 22.4135 6.91733 22.1317 6.91733C21.8497 6.91733 21.5948 7.08514 21.4835 7.34387L19.6549 11.5858L15.0553 12.0137C14.7747 12.0404 14.5363 12.2303 14.4495 12.4989C14.3623 12.7666 14.4429 13.0604 14.6547 13.2469L18.124 16.2974L17.11 20.8038C17.0482 21.0786 17.1556 21.3645 17.3838 21.5301C17.6117 21.6956 17.9165 21.7098 18.1587 21.566L22.1314 19.2093L26.1045 21.566C26.2159 21.6317 26.3404 21.6645 26.4647 21.6645C26.6106 21.6645 26.7564 21.6197 26.8797 21.5301C27.1077 21.3645 27.2152 21.0787 27.1535 20.8038L26.1394 16.2974L29.6088 13.2469C29.8206 13.0604 29.9012 12.7666 29.8141 12.4989C29.7268 12.2304 29.4887 12.0404 29.2081 12.0137ZM42.791 13.3108C42.791 19.2919 38.0926 24.1966 32.1923 24.5277C32.6407 23.9924 33.0684 23.4313 33.4719 22.848C35.5897 22.4187 37.5247 21.281 38.9472 19.6168C40.455 17.8541 41.2854 15.6146 41.2854 13.3107V10.0121C41.2854 9.62144 40.9694 9.30586 40.5796 9.30586H37.5912V7.80025H42.7909V13.3108H42.791ZM27.8235 26.7558C32.8216 23.0164 36.1796 16.38 36.1796 10.2418V4.01688H8.08349V10.2418C8.08349 16.3801 11.4417 23.0164 16.4396 26.7558C19.1835 28.8093 20.4257 32.2233 19.7002 35.4883H24.5631C23.8376 32.2233 25.0798 28.8093 27.8235 26.7558ZM29.55 38.6128V38.8601H14.7131V38.6128C14.7131 37.6686 15.4813 36.8998 16.4256 36.8998H27.8377C28.7819 36.8998 29.55 37.6686 29.55 38.6128ZM35.0177 41.9483C35.0177 41.0241 34.2657 40.2721 33.3415 40.2721H10.9217C9.99767 40.2721 9.24567 41.0241 9.24567 41.9483V46.5884H35.0177V41.9483ZM1.47196 13.3108V7.80016H6.67172V9.30586H3.68355C3.29371 9.30586 2.97766 9.62144 2.97766 10.0121V13.3107C2.97766 15.6145 3.80826 17.8541 5.31613 19.6168C6.73873 21.281 8.67371 22.4187 10.7913 22.848C11.1948 23.4312 11.6225 23.9924 12.0711 24.5277C6.17054 24.1966 1.47196 19.292 1.47196 13.3108ZM6.67953 10.718C6.75812 13.8231 7.60085 17.0418 9.13197 20.0591C9.30091 20.3924 9.47861 20.7191 9.66139 21.0419C6.56414 19.7994 4.38953 16.7311 4.38953 13.3108V10.718H6.67953ZM6.28705 2.0082C6.28705 1.67888 6.55501 1.41159 6.88414 1.41159H37.379C37.7083 1.41159 37.9759 1.67888 37.9759 2.0082C37.9759 2.33762 37.7083 2.60482 37.379 2.60482H6.88414C6.55501 2.60482 6.28705 2.33752 6.28705 2.0082ZM37.5837 10.718C37.5051 13.8231 36.6624 17.0418 35.1314 20.0591C34.9624 20.3924 34.7848 20.7191 34.6018 21.0419C37.6989 19.7994 39.8737 16.7311 39.8737 13.3108V10.718H37.5837ZM43.4972 6.38857H37.5913V4.0053C38.5995 3.89876 39.3876 3.04426 39.3876 2.0082C39.3876 0.900242 38.4865 0 37.379 0H6.88414C5.77646 0 4.87547 0.900242 4.87547 2.0082C4.87547 3.04426 5.6638 3.89876 6.67172 4.0053V6.38857H0.766069C0.37623 6.38857 0.0601807 6.70462 0.0601807 7.09436V13.3108C0.0601807 20.2841 5.73402 25.9584 12.7081 25.9584H13.3777C14.0785 26.6606 14.8185 27.3061 15.594 27.8859C17.9738 29.6668 19.003 32.6703 18.2466 35.4882H16.4255C14.7027 35.4882 13.3012 36.8905 13.3012 38.6128V38.8601H10.9216C9.21903 38.8601 7.83389 40.246 7.83389 41.9483V47.2942C7.83389 47.684 8.14985 48 8.53968 48H35.7233C36.1134 48 36.4293 47.684 36.4293 47.2942V41.9483C36.4293 40.2459 35.0442 38.8601 33.3414 38.8601H30.9619V38.6128C30.9619 36.8905 29.5603 35.4882 27.8377 35.4882H26.0165C25.2603 32.6703 26.2894 29.6669 28.6694 27.8859C29.4446 27.3062 30.1847 26.6607 30.8856 25.9584H31.5552C38.5292 25.9584 44.203 20.284 44.203 13.3108V7.09446C44.203 6.70471 43.887 6.38857 43.4972 6.38857Z" fill="black"/>
</svg>