<svg xmlns="http://www.w3.org/2000/svg" width="41" height="41" viewBox="0 0 41 41" fill="none">
  <path d="M20.5 40.3386C31.4566 40.3386 40.3387 31.4565 40.3387 20.4998C40.3387 9.54323 31.4566 0.661133 20.5 0.661133C9.54341 0.661133 0.661316 9.54323 0.661316 20.4998C0.661316 31.4565 9.54341 40.3386 20.5 40.3386Z" fill="#FF914C"/>
  <path d="M31.8246 4.21582C34.063 7.42638 35.379 11.328 35.379 15.5404C35.379 26.498 26.4979 35.3791 15.5403 35.3791C11.3279 35.3791 7.42626 34.0632 4.2157 31.8247C7.79989 36.9695 13.7548 40.3388 20.5 40.3388C31.4576 40.3388 40.3387 31.4577 40.3387 20.5001C40.3387 13.7549 36.9694 7.80001 31.8246 4.21582Z" fill="#EB6817"/>
  <path d="M21.5282 10.508L23.7799 15.0742C23.9486 15.4114 24.2693 15.6462 24.6429 15.7024L29.6819 16.4331C30.6243 16.5687 30.9979 17.7259 30.3168 18.3905L26.6764 21.945C26.4052 22.2095 26.2829 22.5897 26.3457 22.9601L27.2054 27.9759C27.3674 28.915 26.3821 29.6292 25.539 29.1861L21.0323 26.8187C20.6983 26.6434 20.2982 26.6434 19.9643 26.8187L15.4576 29.1861C14.6144 29.6292 13.6324 28.915 13.7911 27.9759L14.6508 22.9601C14.7136 22.5864 14.5913 22.2062 14.3202 21.945L10.6798 18.3905C9.99864 17.7259 10.3756 16.5687 11.3146 16.4331L16.3536 15.7024C16.7273 15.6495 17.0513 15.4147 17.2166 15.0742L19.4683 10.508C19.8915 9.6549 21.1083 9.6549 21.5282 10.508Z" fill="#F9F9F9"/>
  <path d="M7.1716 6.46097C7.3237 6.46097 7.4791 6.40807 7.60475 6.29896C7.70725 6.20968 7.81305 6.1171 7.91555 6.02783C8.18668 5.78315 8.20983 5.36654 7.96515 5.09541C7.72047 4.82428 7.30386 4.80113 7.03273 5.04581C6.93684 5.13178 6.83765 5.21775 6.74176 5.30371C6.46733 5.54178 6.43757 5.9617 6.67563 6.23613C6.80128 6.38492 6.98644 6.46097 7.1716 6.46097Z" fill="#1F2336"/>
  <path d="M20.5 0C16.3273 0 12.3132 1.24653 8.88774 3.60403C8.58685 3.81234 8.51081 4.22234 8.71911 4.52323C8.92742 4.82411 9.33742 4.90016 9.63831 4.69186C12.839 2.48976 16.5984 1.32258 20.5 1.32258C31.074 1.32258 39.6774 9.92597 39.6774 20.5C39.6774 31.074 31.074 39.6774 20.5 39.6774C9.92597 39.6774 1.32258 31.074 1.32258 20.5C1.32258 15.8346 3.01879 11.3378 6.0971 7.83629C6.33847 7.56186 6.31202 7.14524 6.03758 6.90387C5.76315 6.6625 5.34653 6.68895 5.10516 6.96339C1.81194 10.703 0 15.5106 0 20.5C0 31.8048 9.19524 41 20.5 41C31.8048 41 41 31.8048 41 20.5C41 9.19524 31.8048 0 20.5 0Z" fill="#1F2336"/>
  <path d="M30.7831 18.8666C31.279 18.3839 31.4543 17.673 31.2394 17.0117C31.0244 16.3504 30.4657 15.8809 29.7779 15.7817L24.7389 15.051C24.5802 15.0279 24.4446 14.9287 24.3719 14.7832L22.1235 10.217C21.816 9.59535 21.1944 9.2085 20.5 9.2085C19.8057 9.2085 19.184 9.59535 18.8765 10.217L16.6249 14.7799C16.5554 14.922 16.4165 15.0212 16.2578 15.0444L11.2188 15.7751C10.5311 15.8743 9.97227 16.3471 9.75735 17.0051C9.54243 17.6664 9.71767 18.3773 10.2136 18.86L13.864 22.4178C13.9797 22.5302 14.0293 22.6889 14.0028 22.8476L13.1432 27.8635C13.0274 28.5479 13.3019 29.2258 13.864 29.6325C14.4261 30.0391 15.1568 30.092 15.7685 29.7713L20.2752 27.4039C20.4174 27.3279 20.586 27.3279 20.7282 27.4039L25.2348 29.7746C25.5027 29.9135 25.7903 29.9829 26.078 29.9829C26.4516 29.9829 26.8219 29.8672 27.1394 29.6358C27.7015 29.2291 27.9759 28.5512 27.8602 27.8668L27.0005 22.8509C26.974 22.6922 27.0269 22.5335 27.1394 22.4211L30.7831 18.8666ZM25.6944 23.0724L26.5541 28.0916C26.6004 28.3595 26.4351 28.5149 26.3624 28.5678C26.2896 28.6207 26.0912 28.7331 25.8498 28.6041L21.3432 26.2334C21.0786 26.0945 20.791 26.0251 20.5 26.0251C20.209 26.0251 19.9214 26.0945 19.6569 26.2334L15.1502 28.6008C14.9088 28.7298 14.7104 28.6174 14.6377 28.5645C14.5649 28.5116 14.3996 28.3562 14.4459 28.0883L15.3056 23.0724C15.4048 22.4839 15.213 21.8854 14.7865 21.4721L11.1394 17.9177C10.9444 17.7259 10.9874 17.5044 11.0171 17.4184C11.0469 17.3324 11.1394 17.1274 11.4106 17.0878L16.4496 16.357C17.0382 16.2711 17.5474 15.9008 17.8119 15.3684L20.0636 10.8022C20.1859 10.5575 20.4074 10.5311 20.5 10.5311C20.5926 10.5311 20.8141 10.5575 20.9365 10.8022L23.1882 15.3684C23.4527 15.9041 23.9619 16.2711 24.5504 16.357L29.5894 17.0878C29.8606 17.1274 29.9532 17.3324 29.9829 17.4184C30.0094 17.5044 30.0557 17.7259 29.8606 17.9177L26.2136 21.4721C25.787 21.8854 25.5919 22.4839 25.6944 23.0724Z" fill="#1F2336"/>
</svg>