<svg xmlns="http://www.w3.org/2000/svg" width="22" height="19" viewBox="0 0 22 19" fill="none">
  <path d="M19.4006 13.9198L16.1198 8.33496L12.8378 2.74916C12.67 2.46349 12.4286 2.22627 12.138 2.06133C11.8473 1.8964 11.5176 1.80957 11.1819 1.80957C10.8463 1.80957 10.5166 1.8964 10.2259 2.06133C9.93524 2.22627 9.69387 2.46349 9.52607 2.74916L6.24404 8.335L2.96366 13.9197C2.79588 14.2053 2.70754 14.5292 2.70752 14.859C2.7075 15.1888 2.79579 15.5128 2.96352 15.7984C3.13125 16.084 3.37252 16.3212 3.66309 16.4862C3.95365 16.6511 4.28327 16.738 4.61883 16.7381H17.7442C18.0798 16.7382 18.4096 16.6515 18.7003 16.4866C18.991 16.3218 19.2325 16.0846 19.4003 15.7989C19.5682 15.5133 19.6566 15.1893 19.6567 14.8594C19.6567 14.5295 19.5684 14.2055 19.4006 13.9198Z" fill="#FFD21F"/>
  <path d="M14.7009 1.94756C14.344 1.35542 13.8307 0.863704 13.2126 0.52184C12.5945 0.179975 11.8934 0 11.1797 0C10.466 0 9.7649 0.179975 9.1468 0.52184C8.52871 0.863704 8.01541 1.35542 7.6585 1.94756L4.28118 7.55189L0.903859 13.1562C0.547109 13.7485 0.359325 14.4202 0.359375 15.104C0.359425 15.7878 0.547307 16.4596 0.904143 17.0518C1.26098 17.644 1.7742 18.1358 2.39225 18.4777C3.01029 18.8197 3.71139 18.9998 4.4251 19H17.9343C18.648 18.9998 19.3491 18.8197 19.9671 18.4777C20.5852 18.1358 21.0984 17.644 21.4552 17.0518C21.8121 16.4596 21.9999 15.7878 22 15.104C22 14.4202 21.8122 13.7485 21.4555 13.1562L14.7009 1.94756ZM20.838 16.7098C20.5467 17.2007 20.1242 17.6084 19.6138 17.8909C19.1034 18.1733 18.5237 18.3204 17.9343 18.3168H4.4251C3.83654 18.3167 3.25839 18.1681 2.74874 17.8861C2.23908 17.6041 1.81587 17.1985 1.52161 16.7101C1.22736 16.2218 1.07243 15.6678 1.07239 15.1039C1.07236 14.54 1.22721 13.9861 1.52139 13.4977L8.27604 2.28901C8.89103 1.26855 9.94936 0.683085 11.1797 0.683085C12.4113 0.683085 13.4696 1.26833 14.0832 2.28879L20.838 13.4978C21.136 13.9849 21.293 14.5392 21.293 15.1038C21.293 15.6684 21.136 16.2227 20.838 16.7098ZM16.88 8.21562L13.5021 2.61073C13.0099 1.79457 12.1635 1.32653 11.1798 1.32653C10.1969 1.32653 9.3509 1.79457 8.85868 2.61081L5.48066 8.21574L2.10403 13.8193C1.61182 14.6355 1.61182 15.5718 2.10403 16.388C2.59625 17.2042 3.44218 17.6721 4.4251 17.6721H17.9343C18.918 17.6721 19.7645 17.204 20.2566 16.3879C20.7487 15.5718 20.7488 14.6355 20.2566 13.8193L16.88 8.21562ZM19.6392 16.0462C19.4699 16.3359 19.2222 16.5763 18.9221 16.7423C18.622 16.9082 18.2807 16.9934 17.9343 16.989H4.4251C4.07973 16.9889 3.74047 16.9017 3.44141 16.7361C3.14235 16.5706 2.89402 16.3326 2.72138 16.046C2.54874 15.7594 2.45787 15.4344 2.45789 15.1035C2.45792 14.7726 2.54884 14.4475 2.72152 14.1609L6.09816 8.55724L9.47617 2.95239C9.64889 2.66575 9.89732 2.42772 10.1965 2.26223C10.4957 2.09674 10.835 2.00961 11.1805 2.00961C11.5259 2.00961 11.8653 2.09674 12.1645 2.26223C12.4636 2.42772 12.7121 2.66575 12.8848 2.95239L16.2628 8.55719L19.6392 14.161C19.8165 14.4461 19.9101 14.7718 19.9101 15.1036C19.9101 15.4355 19.8165 15.7611 19.6392 16.0462ZM11.1797 5.9595C10.9785 5.96007 10.7795 5.99947 10.5945 6.07535C10.4095 6.15123 10.2423 6.26204 10.103 6.40116C9.97133 6.53045 9.86861 6.68415 9.80113 6.85284C9.73366 7.02152 9.70286 7.20163 9.71062 7.38213L9.88117 11.1123C9.91272 11.8017 10.4832 12.342 11.1797 12.342C11.8717 12.342 12.4426 11.803 12.4796 11.1123L12.6489 7.38281C12.6571 7.20246 12.6266 7.02243 12.5595 6.85376C12.4923 6.6851 12.3899 6.53138 12.2584 6.40206C12.1189 6.26259 11.9515 6.15151 11.7662 6.07547C11.5808 5.99943 11.3814 5.95998 11.1797 5.9595ZM11.7673 11.08C11.7495 11.41 11.4971 11.6588 11.1797 11.6588C10.8658 11.6588 10.6083 11.4057 10.5935 11.0824L10.4229 7.35237C10.4197 7.26402 10.4354 7.17597 10.4689 7.09362C10.5024 7.01127 10.5532 6.93634 10.618 6.87343C10.6905 6.80042 10.7778 6.74229 10.8745 6.70259C10.9712 6.66288 11.0753 6.64243 11.1805 6.64248C11.2857 6.64252 11.3898 6.66306 11.4865 6.70284C11.5832 6.74263 11.6704 6.80083 11.7428 6.8739C11.8074 6.93675 11.8579 7.01159 11.8912 7.09383C11.9245 7.17607 11.9399 7.26396 11.9365 7.35211L11.7673 11.08ZM11.1797 12.6706C10.9226 12.6708 10.6714 12.7441 10.4577 12.8811C10.244 13.0181 10.0776 13.2127 9.97933 13.4404C9.8811 13.668 9.85551 13.9184 9.9058 14.16C9.95609 14.4016 10.08 14.6234 10.2619 14.7975C10.4438 14.9716 10.6754 15.0902 10.9276 15.1381C11.1798 15.1861 11.4412 15.1614 11.6787 15.0671C11.9162 14.9728 12.1192 14.8131 12.262 14.6083C12.4048 14.4034 12.481 14.1626 12.481 13.9163C12.4806 13.5859 12.3434 13.2691 12.0994 13.0355C11.8554 12.802 11.5246 12.6707 11.1797 12.6706ZM11.1797 14.4788C11.0637 14.4786 10.9503 14.4454 10.8538 14.3835C10.7574 14.3215 10.6824 14.2336 10.6381 14.1308C10.5938 14.028 10.5824 13.9149 10.6051 13.8059C10.6279 13.6968 10.6839 13.5967 10.7661 13.5181C10.8483 13.4395 10.9529 13.3861 11.0668 13.3645C11.1806 13.3429 11.2986 13.3541 11.4058 13.3967C11.5131 13.4393 11.6047 13.5114 11.6691 13.6039C11.7336 13.6964 11.768 13.8051 11.768 13.9163C11.7678 14.0656 11.7058 14.2088 11.5954 14.3143C11.4851 14.4197 11.3356 14.4789 11.1797 14.4788Z" fill="#25293D"/>
  <path d="M14.074 2.23316C13.4629 1.21409 12.4091 0.629517 11.1829 0.629517C9.9577 0.629517 8.90382 1.21405 8.29144 2.23324L1.5655 13.4267C1.27256 13.9144 1.11837 14.4676 1.11841 15.0308C1.11845 15.5939 1.27272 16.1471 1.56572 16.6348C1.85872 17.1225 2.28014 17.5275 2.78764 17.8091C3.29513 18.0908 3.87083 18.2391 4.45689 18.2393H17.9088C18.4948 18.2391 19.0705 18.0908 19.578 17.8091C20.0855 17.5275 20.5069 17.1225 20.7999 16.6348C21.0929 16.1471 21.2471 15.594 21.2472 15.0309C21.2472 14.4678 21.0931 13.9146 20.8001 13.4268L14.074 2.23316ZM20.2212 16.313C19.7311 17.128 18.8883 17.5955 17.9088 17.5955H4.45689C3.47814 17.5955 2.63571 17.128 2.14567 16.313C1.65563 15.498 1.6555 14.563 2.14567 13.7479L5.50797 8.15191L8.87165 2.55465C9.36178 1.73953 10.2042 1.27212 11.1829 1.27212C12.1624 1.27212 13.0052 1.73953 13.4953 2.55457L16.859 8.15179L20.2214 13.7479C20.7114 14.563 20.7114 15.498 20.2212 16.313Z" fill="#FF914C"/>
  <path d="M11.1829 13.283C11.0673 13.2832 10.9544 13.3163 10.8584 13.3782C10.7624 13.44 10.6876 13.5278 10.6436 13.6305C10.5995 13.7332 10.5881 13.8461 10.6107 13.955C10.6334 14.0639 10.6892 14.1639 10.771 14.2423C10.8528 14.3208 10.957 14.3742 11.0704 14.3958C11.1837 14.4174 11.3012 14.4062 11.408 14.3636C11.5148 14.3211 11.606 14.2491 11.6702 14.1567C11.7344 14.0644 11.7687 13.9558 11.7687 13.8447C11.7685 13.6956 11.7067 13.5527 11.5968 13.4473C11.487 13.342 11.3381 13.2828 11.1829 13.283Z" fill="#FF914C"/>
  <path d="M11.1827 6.58105C11.0782 6.58146 10.9748 6.60209 10.8787 6.64171C10.7827 6.68134 10.6959 6.73915 10.6236 6.81169C10.559 6.8745 10.5085 6.94932 10.4751 7.03157C10.4417 7.11381 10.4262 7.20174 10.4294 7.28997L10.5992 11.0149C10.6139 11.3376 10.8704 11.5905 11.183 11.5905C11.499 11.5905 11.7505 11.342 11.768 11.0125L11.9367 7.29018C11.9401 7.20215 11.9248 7.11437 11.8916 7.03224C11.8585 6.95012 11.8082 6.87538 11.7438 6.81263C11.6713 6.73972 11.5843 6.68163 11.4879 6.64183C11.3914 6.60204 11.2877 6.58137 11.1827 6.58105Z" fill="#FF914C"/>
</svg>