<svg xmlns="http://www.w3.org/2000/svg" width="42" height="42" viewBox="0 0 48 48" fill="none">
  <path d="M36 7.5H27V3C27 2.175 26.325 1.5 25.5 1.5H6C3.525 1.5 1.5 3.525 1.5 6V31.5C1.5 33.975 3.525 36 6 36H21C21.825 36 22.5 35.325 22.5 34.5C22.5 33.675 21.825 33 21 33H6C5.175 33 4.5 32.325 4.5 31.5V10.245C4.965 10.41 5.475 10.5 6 10.5H34.5V21C34.5 21.825 35.175 22.5 36 22.5C36.825 22.5 37.5 21.825 37.5 21V9C37.5 8.175 36.825 7.5 36 7.5ZM4.5 6C4.5 5.175 5.175 4.5 6 4.5H24V7.5H6C5.175 7.5 4.5 6.825 4.5 6Z" fill="white"/>
  <path d="M9 22.5C8.175 22.5 7.5 23.175 7.5 24V28.5C7.5 29.325 8.175 30 9 30C9.825 30 10.5 29.325 10.5 28.5V24C10.5 23.175 9.825 22.5 9 22.5Z" fill="white"/>
  <path d="M10.5 18C10.5 17.175 9.825 16.5 9 16.5C8.175 16.5 7.5 17.175 7.5 18V19.5C7.5 20.325 8.175 21 9 21C9.825 21 10.5 20.325 10.5 19.5V18Z" fill="white"/>
  <path d="M36 25.5C30.21 25.5 25.5 30.21 25.5 36C25.5 41.79 30.21 46.5 36 46.5C41.79 46.5 46.5 41.79 46.5 36C46.5 30.21 41.79 25.5 36 25.5ZM40.5 37.5H37.5V40.5C37.5 41.325 36.825 42 36 42C35.175 42 34.5 41.325 34.5 40.5V37.5H31.5C30.675 37.5 30 36.825 30 36C30 35.175 30.675 34.5 31.5 34.5H34.5V31.5C34.5 30.675 35.175 30 36 30C36.825 30 37.5 30.675 37.5 31.5V34.5H40.5C41.325 34.5 42 35.175 42 36C42 36.825 41.325 37.5 40.5 37.5Z" fill="#FF914C"/>
</svg>