<svg xmlns="http://www.w3.org/2000/svg" width="17" height="17" viewBox="0 0 17 17" fill="none">
  <path fill-rule="evenodd" clip-rule="evenodd" d="M4.42196 0.331998C5.52935 0.0858965 6.87972 0 8.5 0C10.1202 0 11.4706 0.0858965 12.5781 0.331998C13.6935 0.579893 14.6054 0.99968 15.3028 1.69714C16.0003 2.39461 16.4201 3.3065 16.668 4.42196C16.9141 5.52935 17 6.87972 17 8.5C17 10.1202 16.9141 11.4706 16.668 12.5781C16.4201 13.6935 16.0003 14.6054 15.3028 15.3028C14.6054 16.0003 13.6935 16.4201 12.5781 16.668C11.4706 16.9141 10.1202 17 8.5 17C6.87972 17 5.52935 16.9141 4.42196 16.668C3.3065 16.4201 2.39461 16.0003 1.69714 15.3028C0.99968 14.6054 0.579926 13.6935 0.331998 12.5781C0.0858965 11.4706 0 10.1202 0 8.5C0 6.87972 0.0858965 5.52935 0.331998 4.42196C0.579893 3.3065 0.99968 2.39461 1.69714 1.69714C2.39461 0.99968 3.3065 0.579893 4.42196 0.331998ZM1.71494 4.72929C1.50267 5.68434 1.41668 6.91206 1.41668 8.5C1.41668 10.0879 1.50271 11.3156 1.71494 12.2707C1.92542 13.2177 2.25047 13.8527 2.69888 14.3011C3.14729 14.7496 3.78227 15.0746 4.72929 15.2851C5.68434 15.4974 6.91206 15.5833 8.5 15.5833C10.0879 15.5833 11.3156 15.4973 12.2707 15.2851C13.2177 15.0746 13.8527 14.7496 14.3011 14.3011C14.7496 13.8527 15.0746 13.2177 15.2851 12.2707C15.4974 11.3156 15.5833 10.0879 15.5833 8.5C15.5833 6.91206 15.4973 5.68434 15.2851 4.72929C15.0746 3.78227 14.7496 3.14729 14.3011 2.69888C13.8527 2.25047 13.2177 1.92542 12.2707 1.71494C11.3156 1.50267 10.0879 1.41668 8.5 1.41668C6.91206 1.41668 5.68434 1.50271 4.72929 1.71494C3.78227 1.92542 3.14729 2.25047 2.69888 2.69888C2.25047 3.14729 1.92538 3.78227 1.71494 4.72929Z" fill="#BBBBBB"/>
  <path fill-rule="evenodd" clip-rule="evenodd" d="M8.578 4.65297C9.06645 4.14068 9.87993 4.11382 10.4022 4.58972L12.3316 6.34805C12.8624 6.83169 12.8929 7.65204 12.3964 8.17273L8.42208 12.3403C8.17627 12.598 7.83588 12.7419 7.48246 12.7433L5.67289 12.75C5.00056 12.7525 4.41954 12.2407 4.37279 11.5523L4.25293 9.78723C4.22856 9.42854 4.35735 9.07885 4.60368 8.82049L8.578 4.65297ZM9.5222 5.55769L8.93294 6.1756L10.8445 7.90511L11.4277 7.29355L9.52293 5.55769H9.5222ZM9.94175 8.8518L8.03011 7.12225L5.55867 9.71399L5.67605 11.4422L7.47761 11.4356L9.94175 8.8518Z" fill="#BBBBBB"/>
</svg>