<svg xmlns="http://www.w3.org/2000/svg" width="40" height="40" viewBox="0 0 40 40" fill="none">
  <path d="M29.9941 14.3106C29.9941 15.3836 29.5679 16.4126 28.8092 17.1712C28.0505 17.9299 27.0215 18.3561 25.9486 18.3561C24.8757 18.3561 23.8467 17.9299 23.088 17.1712C22.3294 16.4126 21.9031 15.3836 21.9031 14.3106C21.9031 13.2377 22.3294 12.2087 23.088 11.45C23.8467 10.6914 24.8757 10.2652 25.9486 10.2652C27.0215 10.2652 28.0505 10.6914 28.8092 11.45C29.5679 12.2087 29.9941 13.2377 29.9941 14.3106ZM29.9844 25.4212C29.8955 27.9923 29.2536 30.514 28.1024 32.8147C27.0417 34.8206 25.4491 36.4956 23.4992 37.6559C21.5493 38.8163 19.3175 39.4171 17.0486 39.3927H15.4304V30.4926C15.4232 28.9927 14.8241 27.5563 13.7636 26.4957C12.703 25.4352 11.2666 24.8361 9.76675 24.8289H0.866723V23.2107C0.842227 20.9418 1.44311 18.71 2.60346 16.7601C3.76381 14.8102 5.43879 13.2175 7.44465 12.1568C9.74533 11.0056 12.2671 10.3637 14.8381 10.2749C17.1956 7.22981 20.2231 4.769 23.6856 3.08349C27.1481 1.39797 30.9524 0.533093 34.8033 0.555985C35.4441 0.551936 36.0794 0.674409 36.6727 0.916382C37.2661 1.15836 37.8058 1.51507 38.2611 1.96607C38.7163 2.41707 39.078 2.95349 39.3255 3.54458C39.5729 4.13566 39.7013 4.76977 39.7032 5.41057C39.7306 9.26869 38.868 13.0812 37.1824 16.5517C35.4968 20.0222 33.0337 23.0574 29.9844 25.4212ZM4.23902 21.5925H7.89936C9.1011 18.916 10.5128 16.3388 12.1212 13.8851C11.004 14.145 9.92151 14.536 8.89616 15.0502C7.66301 15.7013 6.59948 16.6322 5.79076 17.7683C4.98204 18.9044 4.45061 20.2141 4.23902 21.5925ZM26.3742 28.1381C23.9205 29.7465 21.3433 31.1582 18.6668 32.36V36.0203C20.0452 35.8088 21.3548 35.2773 22.4909 34.4686C23.627 33.6599 24.5579 32.5963 25.2091 31.3632C25.7232 30.3378 26.1143 29.2553 26.3742 28.1381ZM36.4668 5.36526C36.455 4.94399 36.2793 4.54394 35.9771 4.2502C35.6749 3.95646 35.2701 3.79221 34.8486 3.79237C26.4988 4.03025 20.8513 7.22942 15.4013 14.8317C13.8804 17.0214 12.543 19.3331 11.4027 21.743C13.1697 22.0721 14.7956 22.9284 16.0665 24.1993C17.3373 25.4702 18.1937 27.0961 18.5228 28.8631C20.9327 27.7228 23.2443 26.3854 25.434 24.8645C33.0298 19.408 36.229 13.7605 36.4668 5.36526ZM10.7733 29.4877C11.6775 30.4012 12.1846 31.6346 12.1846 32.9199C12.1846 34.2052 11.6775 35.4386 10.7733 36.3521C9.30557 37.8181 4.91219 38.7227 3.09011 39.0447L0.814941 39.4444L1.21463 37.1693C1.53827 35.3472 2.44122 30.9538 3.9073 29.4861C4.83249 28.6036 6.06204 28.1114 7.3406 28.1117C8.61916 28.112 9.84848 28.6048 10.7733 29.4877ZM8.95766 32.9199C8.95823 32.7073 8.91662 32.4967 8.83523 32.3003C8.75385 32.1039 8.6343 31.9257 8.48353 31.7758C8.18007 31.4724 7.76855 31.302 7.33947 31.302C6.91038 31.302 6.49887 31.4724 6.19541 31.7758C5.57847 32.8895 5.14516 34.0955 4.91219 35.3472C6.16435 35.1132 7.37074 34.6794 8.48515 34.0623C8.63544 33.9125 8.75457 33.7344 8.83567 33.5384C8.91677 33.3423 8.95823 33.1321 8.95766 32.9199Z" fill="#25293D"/>
</svg>