<svg xmlns="http://www.w3.org/2000/svg" width="31" height="34" viewBox="0 0 31 34" fill="none">
  <path d="M5.44235 4.57947H4.43481C2.46333 4.57947 0.861328 6.18302 0.861328 8.15295V28.9457C0.861328 30.9169 2.46488 32.5192 4.43481 32.5192H20.0291C22.0006 32.5192 23.6026 30.9156 23.6026 28.9457V4.57947C23.6026 4.57947 5.43513 4.68938 5.44235 4.57947Z" fill="#3CEBFF"/>
  <path d="M23.2503 0.590271H10.3922C8.83539 0.590271 7.57422 1.85144 7.57422 3.40855V23.364C7.57422 24.9212 8.83539 26.1823 10.3922 26.1823H27.6538C29.2107 26.1823 30.4718 24.9212 30.4718 23.364V3.40855C30.4718 1.85144 29.2107 0.590271 27.6538 0.590271H23.2503Z" fill="#F9F9F9"/>
  <path d="M27.1255 26.7727H10.9207C8.7831 26.7727 7.0459 25.0355 7.0459 22.8979V3.8751C7.0459 1.73746 8.7831 0 10.9207 0H27.1255C29.2631 0 31.0003 1.73746 31.0003 3.8751V22.8979C31.0003 25.0355 29.2631 26.7727 27.1255 26.7727ZM10.9207 2.11364C9.94984 2.11364 9.15954 2.90419 9.15954 3.8751V22.8979C9.15954 23.8688 9.94984 24.6591 10.9207 24.6591H27.1255C28.0964 24.6591 28.8867 23.8688 28.8867 22.8979V3.8751C28.8867 2.90419 28.0964 2.11364 27.1255 2.11364H10.9207Z" fill="#25293D"/>
  <path d="M20.7842 33.8183H3.8751C1.73746 33.8183 0 32.0808 0 29.9432V7.39774C0 5.2601 1.73746 3.52264 3.8751 3.52264H4.57947C5.16284 3.52264 5.6363 3.9961 5.6363 4.57947C5.6363 5.16283 5.16284 5.63629 4.57947 5.63629H3.8751C2.90419 5.63629 2.11364 6.42684 2.11364 7.39774V29.9432C2.11364 30.9141 2.90419 31.7046 3.8751 31.7046H20.7842C21.7551 31.7046 22.5454 30.9141 22.5454 29.9432V29.2388C22.5454 28.6554 23.0189 28.182 23.6023 28.182C24.1856 28.182 24.6591 28.6554 24.6591 29.2388V29.9432C24.6591 32.0808 22.9219 33.8183 20.7842 33.8183Z" fill="#25293D"/>
  <path d="M17.4891 17.4706C17.8285 17.471 18.154 17.3286 18.3936 17.0747L24.7902 10.3187C25.2961 9.79772 25.3064 8.94224 24.8132 8.40793C24.3199 7.87363 23.5099 7.86278 23.0041 8.38373C22.9963 8.39171 22.9887 8.3998 22.9812 8.40793L17.4891 14.2084L15.1953 11.786C14.7021 11.2517 13.8921 11.2408 13.3862 11.7618C12.8804 12.2827 12.8701 13.1382 13.3633 13.6725C13.3709 13.6807 13.3785 13.6888 13.3862 13.6967L16.5845 17.0747C16.8242 17.3286 17.1497 17.471 17.4891 17.4706Z" fill="#25293D"/>
</svg>