<svg xmlns="http://www.w3.org/2000/svg" width="23" height="23" viewBox="0 0 23 23" fill="none">
  <path d="M6.03595 19.6181C6.25106 19.6191 6.45923 19.6945 6.62507 19.8315L9.69468 22.3513C10.7452 23.21 12.2552 23.21 13.3057 22.3513L16.3744 19.8315C16.5405 19.6946 16.7486 19.6192 16.9638 19.6181H20.1249C21.7257 19.6023 23.0117 18.2939 22.9999 16.693V2.92506C23.0118 1.32423 21.7257 0.0158068 20.1249 0H2.87508C1.27428 0.0158068 -0.0117645 1.32423 8.1179e-05 2.92506V16.693C-0.0117645 18.2939 1.27428 19.6023 2.87508 19.6181H6.03595ZM1.91674 16.693V2.92506C1.90392 2.38234 2.3324 1.93145 2.87508 1.91666H20.1249C20.6676 1.93145 21.0961 2.38234 21.0833 2.92506V16.693C21.0961 17.2357 20.6676 17.6866 20.1249 17.7014H16.9641C16.3053 17.7028 15.6674 17.9319 15.1583 18.35L12.0896 20.8698C11.7484 21.1547 11.2521 21.1547 10.9109 20.8698L7.84125 18.35C7.33237 17.9318 6.69456 17.7027 6.03595 17.7014H2.87508C2.3324 17.6866 1.90392 17.2357 1.91674 16.693Z" fill="#25293D"/>
  <path d="M9.9007 14.8823C10.2401 14.8828 10.5656 14.7403 10.8052 14.4865L17.2019 7.73042C17.7077 7.20946 17.718 6.35399 17.2248 5.81968C16.7315 5.28537 15.9216 5.27452 15.4157 5.79548C15.4079 5.80345 15.4003 5.81154 15.3928 5.81968L9.9007 11.6201L7.60694 9.19771C7.1137 8.6634 6.30373 8.65255 5.79785 9.17351C5.29197 9.69446 5.2817 10.5499 5.77494 11.0842C5.78249 11.0924 5.79015 11.1005 5.79785 11.1085L8.99616 14.4865C9.23578 14.7403 9.56132 14.8828 9.9007 14.8823Z" fill="#FF914C"/>
</svg>