<svg xmlns="http://www.w3.org/2000/svg" width="35" height="35" viewBox="0 0 35 35" fill="none">
  <path d="M34.6775 11.8805L24.4217 1.6247C24.2681 1.47122 24.0723 1.36673 23.8593 1.32441C23.6463 1.28209 23.4255 1.30385 23.2248 1.38694C23.0242 1.47002 22.8526 1.61072 22.7319 1.79124C22.6111 1.97177 22.5466 2.18403 22.5464 2.40122V7.20517C15.1801 7.7668 7.73242 13.9398 7.73242 21.4477V22.9128C7.73242 23.3801 7.848 23.8652 8.058 23.5998L9.9594 21.2231C11.5308 19.5008 13.4982 18.1876 15.6915 17.397C17.8847 16.6065 20.2376 16.3625 22.5464 16.6861V21.4477C22.5466 21.6577 22.607 21.8633 22.7204 22.04C22.8338 22.2167 22.9955 22.3573 23.1863 22.445C23.3771 22.5326 23.5891 22.5638 23.7971 22.5348C24.005 22.5058 24.2003 22.4178 24.3599 22.2812L34.6157 13.4905C34.7304 13.392 34.8236 13.2708 34.8894 13.1346C34.9551 12.9985 34.9921 12.8501 34.9979 12.699C35.0037 12.5479 34.9782 12.3972 34.9231 12.2563C34.868 12.1155 34.7844 11.9876 34.6775 11.8805Z" fill="#3CEBFF"/>
  <path d="M28.8953 35H6.10465C4.48626 34.9978 2.93477 34.354 1.79039 33.2096C0.646012 32.0652 0.00215355 30.5137 0 28.8953V6.10465C0.00215355 4.48626 0.646012 2.93477 1.79039 1.79039C2.93477 0.646012 4.48626 0.00215355 6.10465 0H15.8721C16.1959 0 16.5065 0.128633 16.7354 0.357602C16.9644 0.586571 17.093 0.897119 17.093 1.22093C17.093 1.54474 16.9644 1.85529 16.7354 2.08426C16.5065 2.31323 16.1959 2.44186 15.8721 2.44186H6.10465C5.13362 2.44315 4.20272 2.82947 3.51609 3.51609C2.82947 4.20272 2.44315 5.13362 2.44186 6.10465V28.8953C2.44315 29.8664 2.82947 30.7973 3.51609 31.4839C4.20272 32.1705 5.13362 32.5568 6.10465 32.5581H28.8953C29.8664 32.5568 30.7973 32.1705 31.4839 31.4839C32.1705 30.7973 32.5568 29.8664 32.5581 28.8953V19.1279C32.5581 18.8041 32.6868 18.4935 32.9157 18.2646C33.1447 18.0356 33.4553 17.907 33.7791 17.907C34.1029 17.907 34.4134 18.0356 34.6424 18.2646C34.8714 18.4935 35 18.8041 35 19.1279V28.8953C34.9978 30.5137 34.354 32.0652 33.2096 33.2096C32.0652 34.354 30.5137 34.9978 28.8953 35Z" fill="#25293D"/>
  <path d="M7.73265 25.2326C7.59521 25.2324 7.45877 25.2093 7.32893 25.1642C7.09004 25.0805 6.88308 24.9246 6.73667 24.7182C6.59027 24.5117 6.51165 24.2648 6.51172 24.0117V22.3837C6.51666 18.3869 8.02722 14.5385 10.7424 11.6055C13.4577 8.67243 17.1782 6.86998 21.1629 6.55723V1.22096C21.1631 0.979635 21.2348 0.743789 21.369 0.543205C21.5032 0.342622 21.6938 0.186298 21.9167 0.0939768C22.1397 0.00165592 22.385 -0.0225207 22.6217 0.0245004C22.8584 0.0715215 23.0759 0.187631 23.2466 0.358165L34.642 11.7535C34.7612 11.8719 34.8545 12.0138 34.9159 12.1702C34.9773 12.3265 35.0054 12.494 34.9985 12.6619C34.9922 12.83 34.9512 12.9951 34.878 13.1466C34.8049 13.2982 34.7013 13.433 34.5736 13.5426L23.1782 23.31C23.0012 23.4626 22.7841 23.5611 22.5527 23.5938C22.3213 23.6264 22.0853 23.5919 21.873 23.4943C21.6606 23.3967 21.4808 23.2402 21.3549 23.0433C21.229 22.8464 21.1624 22.6175 21.1629 22.3837V17.0931C19.1682 17.1065 17.2019 17.5668 15.4085 18.4401C13.6151 19.3134 12.0402 20.5775 10.7996 22.1396L8.68335 24.78C8.56853 24.9214 8.42361 25.0354 8.25914 25.1137C8.09467 25.192 7.9148 25.2326 7.73265 25.2326ZM23.6047 4.1691V7.73258C23.6047 8.05639 23.4761 8.36694 23.2471 8.59591C23.0182 8.82488 22.7076 8.95351 22.3838 8.95351C19.1756 8.95742 16.0744 10.108 13.64 12.1976C11.2056 14.2873 9.59828 17.1783 9.10823 20.3489C10.5936 18.5617 12.4551 17.1243 14.56 16.1394C16.6648 15.1545 18.9611 14.6464 21.285 14.6512H22.3838C22.7076 14.6512 23.0182 14.7798 23.2471 15.0088C23.4761 15.2378 23.6047 15.5483 23.6047 15.8721V19.7286L31.9885 12.5479L23.6047 4.1691Z" fill="#25293D"/>
</svg>